<?xml version="1.0" encoding="UTF-8" standalone="no"?>
<!-- Created with Inkscape (http://www.inkscape.org/) -->

<svg
   width="512"
   height="512"
   viewBox="0 0 135.46666 135.46667"
   version="1.1"
   id="svg1"
   inkscape:version="1.4.4 (dcaf3e7d9e, 2026-05-05)"
   sodipodi:docname="dailybulletinv3gy.svg"
   xmlns:inkscape="http://www.inkscape.org/namespaces/inkscape"
   xmlns:sodipodi="http://sodipodi.sourceforge.net/DTD/sodipodi-0.dtd"
   xmlns="http://www.w3.org/2000/svg"
   xmlns:svg="http://www.w3.org/2000/svg">
  <sodipodi:namedview
     id="namedview1"
     pagecolor="#505050"
     bordercolor="#eeeeee"
     borderopacity="1"
     inkscape:showpageshadow="0"
     inkscape:pageopacity="0"
     inkscape:pagecheckerboard="false"
     inkscape:deskcolor="#d1d1d1"
     inkscape:document-units="mm"
     showguides="true"
     inkscape:zoom="1.4142136"
     inkscape:cx="210.36426"
     inkscape:cy="240.4163"
     inkscape:window-width="1920"
     inkscape:window-height="1050"
     inkscape:window-x="0"
     inkscape:window-y="0"
     inkscape:window-maximized="0"
     inkscape:current-layer="layer1" />
  <defs
     id="defs1" />
  <g
     inkscape:label="Layer 1"
     inkscape:groupmode="layer"
     id="layer1">
    <rect
       style="fill:#38b000;stroke:#969696;stroke-width:6.35;stroke-linecap:round;stroke-linejoin:miter;stroke-dasharray:none;stroke-opacity:1;fill-opacity:0"
       id="rect1"
       width="110"
       height="80"
       x="12.733334"
       y="27.733334"
       ry="6.8617353" />
    <g
       id="text1"
       style="opacity:1;fill:#38b000;fill-opacity:1"
       transform="scale(0.98866554,1.0114644)">
      <path
         style="font-size:32.7852px;line-height:0;font-family:Poppins;-inkscape-font-specification:Poppins;text-align:center;letter-spacing:6.5396px;baseline-shift:baseline;text-anchor:middle;display:inline;overflow:visible;vector-effect:none;fill:#38b000;stroke-linecap:round;enable-background:accumulate;stop-color:#000000;stop-opacity:1;fill-opacity:1"
         d="m 26.144982,52.134522 q 3.680732,0.649012 6.11576,2.509885 2.473008,1.834278 3.443887,4.635456 1.003166,2.806872 0.394005,6.261593 -0.60916,3.454722 -2.511835,5.749215 -1.864694,2.267899 -4.815921,3.145739 -2.913248,0.851245 -6.593979,0.202233 L 15.170594,73.403242 19.138678,50.899121 Z M 22.60388,72.217109 q 4.358761,0.768567 7.055356,-1.119609 2.702288,-1.920463 3.436696,-6.085501 0.740102,-4.197325 -1.168975,-6.964188 -1.87679,-2.761168 -6.203263,-3.524042 l -4.068177,-0.71733 -3.119813,17.693341 z m 22.759005,-7.918676 q 0.478219,-2.712118 1.934646,-4.552641 1.46212,-1.872811 3.566318,-2.666968 2.136485,-0.788463 4.493444,-0.372868 2.324673,0.409903 3.859404,1.712537 1.534732,1.302634 2.106622,2.968149 l 0.569308,-3.228712 2.970415,0.523765 -3.119813,17.69334 -2.970415,-0.523764 0.580695,-3.293286 q -1.14502,1.396068 -3.070703,2.121829 -1.887703,0.699167 -4.180089,0.294957 -2.356959,-0.415595 -4.056948,-1.913824 -1.699989,-1.498228 -2.4277,-3.790456 -0.727711,-2.292228 -0.255184,-4.972058 z m 14.975529,2.67388 q 0.352972,-2.001801 -0.192324,-3.629335 -0.545296,-1.627535 -1.797008,-2.647229 -1.213732,-1.046287 -2.860375,-1.336635 -1.646643,-0.290348 -3.139336,0.245433 -1.492693,0.535781 -2.561753,1.878662 -1.06906,1.34288 -1.422031,3.344681 -0.358665,2.034088 0.180938,3.69391 0.545295,1.627535 1.759027,2.673823 1.219425,1.014 2.866068,1.304348 1.646643,0.290347 3.139336,-0.245434 1.530673,-0.562375 2.599733,-1.905255 1.074753,-1.375167 1.427725,-3.376969 z M 96.036033,50.028846 91.823146,73.921313 88.885018,73.403242 93.097905,49.510775 Z m 25.813097,8.368194 -15.24338,24.144697 -3.03499,-0.53515 4.98998,-7.908946 -4.0498,-18.75779 3.261,0.575002 3.02565,15.314692 8.01655,-13.367655 z"
         id="path5" />
      <path
         style="font-size:32.7852px;line-height:0;font-family:Poppins;-inkscape-font-specification:Poppins;text-align:center;letter-spacing:6.5396px;baseline-shift:baseline;text-anchor:middle;display:inline;overflow:visible;vector-effect:none;fill:#969696;stroke-linecap:round;enable-background:accumulate;stop-color:#000000;stop-opacity:1;fill-opacity:1"
         d="m 90.523437,45.832031 -5.316406,30.146485 9.191406,1.621093 5.316407,-30.146484 z M 15.521716,46.989493 11.492188,75.978516 21.625,77.765625 c 2.828667,0.49877 5.540906,0.448135 8.037109,-0.28125 l 0.0059,-0.002 0.0078,-0.002 c 2.506697,-0.745615 4.722353,-2.18074 6.359375,-4.169922 1.659368,-2.003265 2.706492,-4.477785 3.189453,-7.216797 0.482284,-2.735167 0.345456,-5.418022 -0.52539,-7.865234 -0.849143,-2.441602 -2.434498,-4.559746 -4.533203,-6.121094 -2.091048,-1.591638 -4.631489,-2.599324 -7.46875,-3.09961 z m 84.888444,4.403085 4.77343,22.107422 -6.822262,10.8125 9.791012,1.726562 18.90625,-29.947265 -6.03021,-6.837224 -8.71393,13.270818 -1.84961,-9.359375 z m -47.619144,2.041016 c -1.033371,0.08594 -2.052301,0.306179 -3.027344,0.666015 l -0.0098,0.0039 -0.01172,0.0039 c -1.942599,0.733167 -3.64313,2.019834 -4.9375,3.673828 -1.334394,1.688456 -2.175588,3.739279 -2.568359,5.966797 -0.3903,2.213501 -0.297616,4.425258 0.355469,6.482422 0.640528,2.017609 1.788167,3.831602 3.355469,5.21289 1.570126,1.383779 2.681918,1.178776 4.767213,1.546469 1.206957,0.21282 4.18394,-0.469038 5.36671,-0.622711 l -0.519109,2.058664 8.75628,1.626953 4.222657,-23.947265 -8.585947,-1.786847 -0.330691,1.911136 c -1.050733,-0.535246 -2.969142,-2.253736 -4.165571,-2.464699 -1.035508,-0.182588 -1.634387,-0.41739 -2.667757,-0.331452 z m -28.558594,4.050781 0.939453,0.166016 c 2.31652,0.408465 3.438916,1.166514 4.128906,2.18164 l 0.0059,0.0098 0.0078,0.0098 c 0.737595,1.069011 1.045914,2.388408 0.654297,4.609375 -0.3871,2.195354 -1.11554,3.307796 -2.138672,4.039063 -0.973047,0.678584 -2.323333,1.004644 -4.675781,0.589844 L 22.212891,68.923828 Z M 54.9375,62.486328 c 0.586853,0.103478 0.956548,0.284548 1.337891,0.613281 l 0.0332,0.0293 0.03516,0.0293 c 0.368212,0.29996 0.596514,0.612835 0.791016,1.193359 0.173402,0.517552 0.237382,1.156043 0.07617,2.070313 -0.159948,0.90711 -0.440858,1.497785 -0.796875,1.957031 -0.379775,0.473487 -0.720855,0.713417 -1.1875,0.886719 -0.46984,0.166929 -0.901288,0.213679 -1.503906,0.107422 -0.595395,-0.104984 -0.979374,-0.296743 -1.359375,-0.607422 -0.354594,-0.310987 -0.598934,-0.655796 -0.796875,-1.238281 -0.175307,-0.545302 -0.239351,-1.211925 -0.07422,-2.148438 0.161211,-0.914269 0.439339,-1.490935 0.779297,-1.917969 0.392385,-0.492886 0.722279,-0.713522 1.150391,-0.867187 0.474086,-0.170167 0.908336,-0.214503 1.515625,-0.107422 z"
         id="path6"
         sodipodi:nodetypes="ccccccccccccscccccccccccccsccccssssccccccsscccccsccccscccssccsccsssss" />
    </g>
    <g
       id="g4"
       transform="rotate(10,44.59799,59.201506)">
      <path
         id="rect2"
         style="fill:#ffffff;fill-opacity:1;stroke:#90b493;stroke-width:0;stroke-linecap:round"
         d="M 76.519001,42.094952 80.009,65.948756 v 11.926901 5.963451 L 76.519001,89.802559 73.029,83.839108 V 77.875657 65.948756 Z"
         sodipodi:nodetypes="ccccccccc" />
      <path
         id="rect4"
         style="fill:#969696;fill-opacity:1;stroke:#90b493;stroke-width:0;stroke-linecap:round"
         d="m 73.116398,42.068752 h 6.805732 c 2.546812,0 4.597134,2.050322 4.597134,4.597134 v 2.414325 L 79.3345,54.140368 80.922,68.5 c 0,0 1.529817,1.089411 2.129361,1.882164 0.599544,0.792752 1.467903,2.874351 1.467903,2.874351 0.676345,2.659694 -2.050452,4.597134 -4.597264,4.597134 h -6.806 c -2.546812,0 -4.596736,-2.050322 -4.596736,-4.597134 0,0 0.438235,-1.850088 1.037691,-2.64284 C 70.156411,69.820922 72.116,68.5 72.116,68.5 l 1.5875,-14.359632 -5.184236,-5.060157 v -2.414325 c 0,-2.546812 2.050322,-4.597134 4.597134,-4.597134 z"
         sodipodi:nodetypes="ssscccsssssscccss" />
    </g>
  </g>
</svg>
